<svg version="1.1" id="Layer_1" xmlns="http://www.w3.org/2000/svg" xmlns:xlink="http://www.w3.org/1999/xlink" x="0px" y="0px"
	 width="100%" viewBox="0 0 3840 2160" enable-background="new 0 0 3840 2160" xml:space="preserve">
<path fill="#47704C" opacity="1.000000" stroke="none" 
	d="
M2160.000000,2162.000000 
	C1440.000122,2162.000000 721.000244,2162.000000 2.000289,2162.000000 
	C2.000193,1442.000244 2.000193,722.000488 2.000097,2.000579 
	C1281.999512,2.000386 2561.999023,2.000386 3841.999023,2.000193 
	C3841.999268,721.999329 3841.999268,1441.998657 3841.999512,2161.999023 
	C3281.666748,2162.000000 2721.333252,2162.000000 2160.000000,2162.000000 
M2232.691650,621.440735 
	C2234.249268,619.918823 2234.962646,618.652283 2229.971191,618.408875 
	C2134.994141,618.383362 2040.017090,618.403931 1945.040405,618.229309 
	C1938.653076,618.217529 1933.566772,619.989746 1928.576416,623.883240 
	C1904.595581,642.592224 1882.353027,663.120544 1863.568237,687.076904 
	C1810.479248,754.782471 1779.001587,829.837280 1785.607544,917.830322 
	C1788.650024,958.355652 1800.647217,996.086548 1819.421509,1031.875000 
	C1834.318481,1060.272217 1852.647583,1086.468506 1871.042969,1112.637939 
	C1889.431274,1138.797485 1907.816772,1164.969238 1920.957275,1194.359741 
	C1939.906738,1236.742432 1944.533325,1280.136719 1929.773804,1324.681274 
	C1918.789673,1357.832153 1899.631836,1386.114014 1875.972168,1411.477051 
	C1853.381714,1435.693970 1827.956055,1456.606567 1800.775024,1475.448975 
	C1798.788208,1476.826294 1797.107300,1478.644775 1794.515747,1480.937988 
	C1798.385010,1482.228516 1800.856201,1483.183228 1803.397705,1483.881348 
	C1882.366577,1505.573975 1961.350464,1527.212402 2040.298950,1548.978882 
	C2045.487427,1550.409546 2049.764160,1550.030029 2054.415283,1547.009888 
	C2110.724609,1510.445679 2158.422363,1465.205200 2195.071289,1408.645630 
	C2226.381348,1360.325439 2241.068604,1307.754761 2235.611816,1250.146240 
	C2231.558838,1207.357910 2217.247559,1167.573120 2196.422119,1130.422729 
	C2179.018799,1099.376831 2159.484131,1069.517700 2140.657227,1039.280029 
	C2124.461670,1013.268799 2108.150391,987.370850 2095.440674,959.363342 
	C2074.670898,913.595398 2069.533691,866.223389 2079.410400,817.029114 
	C2090.520508,761.690369 2120.097412,716.959473 2159.577148,678.155396 
	C2181.474365,656.632690 2205.960693,638.171936 2232.691650,621.440735 
M1567.174316,1218.209473 
	C1584.833496,1187.020264 1597.984741,1154.032959 1606.746582,1119.279907 
	C1619.836182,1067.359741 1622.925293,1014.815002 1615.392578,961.851990 
	C1608.584473,913.983093 1593.952515,868.540039 1570.789062,825.914307 
	C1547.331177,782.747253 1517.386108,744.801941 1480.459595,712.419312 
	C1449.697266,685.442383 1415.524902,663.715515 1378.224731,646.911316 
	C1334.670044,627.289368 1288.921997,616.062439 1241.401611,612.519897 
	C1212.145996,610.338989 1182.900391,611.497925 1153.746826,615.637817 
	C1103.352295,622.793884 1055.910278,638.634521 1011.760254,663.772461 
	C932.817383,708.720581 874.716431,772.799194 837.879333,855.932800 
	C817.972900,900.857483 807.107788,948.067078 804.533325,997.020081 
	C803.152771,1023.271362 804.238708,1049.569580 807.931519,1075.716553 
	C814.276855,1120.643555 827.496582,1163.443359 848.199707,1203.734497 
	C882.447266,1270.385010 931.312866,1323.931885 994.738098,1363.984741 
	C1052.489990,1400.455200 1115.688599,1420.781738 1183.667114,1425.477051 
	C1241.162842,1429.448364 1297.336670,1421.853271 1351.479980,1401.634644 
	C1444.944702,1366.732544 1516.572876,1305.910034 1567.174316,1218.209473 
M3760.154785,1192.856934 
	C3752.776611,1170.045654 3745.402832,1147.233032 3738.020020,1124.423462 
	C3705.311279,1023.366943 3672.599365,922.311523 3639.890625,821.255188 
	C3625.433105,776.588440 3610.988770,731.917480 3596.520264,687.254272 
	C3591.287109,671.099609 3586.077637,654.936523 3580.707520,638.827209 
	C3577.909668,630.433716 3577.762451,630.480530 3568.680176,630.338806 
	C3567.347412,630.317993 3566.014160,630.329956 3564.681152,630.329956 
	C3478.700928,630.329712 3392.720459,630.329590 3306.740234,630.330688 
	C3304.740723,630.330750 3302.729980,630.484680 3300.743896,630.325500 
	C3295.691650,629.920654 3292.917236,631.826538 3291.416748,637.012756 
	C3287.994385,648.841492 3283.822510,660.451233 3280.104980,672.197327 
	C3257.702881,742.980286 3235.366455,813.783936 3212.961426,884.565918 
	C3197.086426,934.719238 3181.108398,984.839966 3165.229736,1034.992065 
	C3142.819824,1105.772583 3120.483154,1176.575928 3098.070312,1247.355469 
	C3082.691895,1295.919434 3067.213379,1344.451904 3051.873291,1393.027832 
	C3050.847412,1396.276245 3050.610107,1399.773682 3049.886230,1403.826660 
	C3133.831787,1403.826660 3216.375488,1403.826660 3299.983154,1403.826660 
	C3310.751953,1362.173340 3321.467041,1320.728271 3332.282471,1278.894531 
	C3336.415039,1278.681885 3339.693359,1278.367676 3342.971680,1278.366089 
	C3403.957764,1278.336548 3464.943604,1278.330811 3525.929688,1278.356567 
	C3536.655762,1278.361206 3536.719482,1278.420898 3539.323242,1288.677246 
	C3546.941406,1318.682861 3554.478760,1348.708862 3562.104004,1378.712524 
	C3564.213867,1387.014038 3566.518555,1395.266113 3568.601807,1403.047974 
	C3581.820312,1405.297119 3819.670410,1404.738281 3828.070068,1402.313599 
	C3805.570068,1332.986816 3783.080322,1263.691528 3760.154785,1192.856934 
M87.088982,790.129089 
	C74.088928,809.156738 62.713070,829.138306 53.298950,850.144958 
	C22.372299,919.154297 11.279663,991.307556 19.767225,1066.461426 
	C24.936594,1112.234131 37.584888,1155.900513 57.905594,1197.176147 
	C91.795654,1266.013916 140.914032,1321.524414 205.813416,1362.644531 
	C288.288605,1414.900879 378.457916,1434.747803 475.096161,1423.248657 
	C549.840210,1414.354736 617.069092,1385.916870 676.422180,1339.484985 
	C688.901245,1329.722778 700.430908,1318.747070 711.769531,1308.877563 
	C657.353577,1254.461304 603.927185,1201.034424 550.475342,1147.582153 
	C463.636810,1228.432373 345.869965,1201.968994 289.559692,1136.187500 
	C232.330231,1069.332153 228.791031,967.950134 293.679230,897.245056 
	C324.140930,864.052612 362.537567,845.011780 407.475830,840.938843 
	C463.425934,835.867920 511.629852,854.254150 551.352722,891.620361 
	C605.321838,837.647400 658.671204,784.294189 712.834961,730.126526 
	C706.188477,724.035950 698.892029,716.827820 691.062439,710.254822 
	C602.207397,635.659180 499.957733,603.359375 384.373260,613.669067 
	C324.674866,618.993958 269.169708,637.626770 217.593552,667.857361 
	C165.352722,698.477417 122.410194,739.241211 87.088982,790.129089 
M2403.669922,663.006592 
	C2403.721191,718.337952 2403.769287,773.669250 2403.848145,829.000549 
	C2403.849365,829.976990 2404.186035,830.960876 2404.432373,831.924438 
	C2404.506592,832.214783 2404.791748,832.459534 2405.005127,832.703430 
	C2405.224365,832.953491 2405.473389,833.177429 2406.454346,834.155579 
	C2458.179932,834.750122 2510.689697,833.865173 2563.802246,834.636658 
	C2564.020752,839.317322 2564.280518,842.591858 2564.305908,845.868164 
	C2564.370117,854.200928 2564.331055,862.534485 2564.331055,870.867737 
	C2564.331543,1043.532593 2564.324219,1216.197510 2564.368408,1388.862427 
	C2564.369629,1393.697754 2564.920166,1398.532837 2565.196533,1403.070190 
	C2577.405273,1405.119995 2791.125732,1404.694946 2800.329834,1402.465942 
	C2800.329834,1397.954346 2800.329834,1393.055176 2800.329834,1388.155884 
	C2800.330078,1208.824463 2800.324707,1029.492920 2800.360107,850.161438 
	C2800.361084,845.296997 2800.803467,840.432678 2801.099854,834.339233 
	C2806.063721,834.339233 2809.975342,834.339355 2813.886719,834.339294 
	C2858.886230,834.338379 2903.885986,834.358032 2948.885498,834.302002 
	C2953.064941,834.296814 2957.243896,833.811218 2961.614746,833.536621 
	C2961.614746,765.538086 2961.614746,698.700989 2961.614746,632.046448 
	C2951.330322,629.465332 2412.435791,629.754517 2403.669922,632.498962 
	C2403.669922,641.765442 2403.669922,651.388428 2403.669922,663.006592 
z"/>
<path fill="#B30328" opacity="1.000000" stroke="none" 
	d="
M1566.810913,1218.848999 
	C1516.572876,1305.910034 1444.944702,1366.732544 1351.479980,1401.634644 
	C1297.336670,1421.853271 1241.162842,1429.448364 1183.667114,1425.477051 
	C1115.688599,1420.781738 1052.489990,1400.455200 994.738098,1363.984741 
	C931.312866,1323.931885 882.447266,1270.385010 848.199707,1203.734497 
	C827.496582,1163.443359 814.276855,1120.643555 807.931519,1075.716553 
	C804.238708,1049.569580 803.152771,1023.271362 804.533325,997.020081 
	C807.107788,948.067078 817.972900,900.857483 837.879333,855.932800 
	C874.716431,772.799194 932.817383,708.720581 1011.760254,663.772461 
	C1055.910278,638.634521 1103.352295,622.793884 1153.746826,615.637817 
	C1182.900391,611.497925 1212.145996,610.338989 1241.401611,612.519897 
	C1288.921997,616.062439 1334.670044,627.289368 1378.224731,646.911316 
	C1415.524902,663.715515 1449.697266,685.442383 1480.459595,712.419312 
	C1517.386108,744.801941 1547.331177,782.747253 1570.789062,825.914307 
	C1593.952515,868.540039 1608.584473,913.983093 1615.392578,961.851990 
	C1622.925293,1014.815002 1619.836182,1067.359741 1606.746582,1119.279907 
	C1597.984741,1154.032959 1584.833496,1187.020264 1566.810913,1218.848999 
M1388.528076,992.579163 
	C1382.782227,953.348450 1365.946899,919.630981 1337.464722,892.073242 
	C1288.729614,844.920288 1230.625122,829.283081 1165.447632,846.137512 
	C1077.914551,868.773071 1024.165894,952.517090 1033.542480,1036.860352 
	C1038.925781,1085.282104 1060.253540,1125.121704 1097.488403,1156.015137 
	C1135.308472,1187.394287 1179.076172,1201.127563 1228.319824,1196.383057 
	C1274.050415,1191.977051 1312.602661,1173.007080 1343.463379,1139.020630 
	C1380.827759,1097.871948 1395.449097,1049.364624 1388.528076,992.579163 
z"/>
<path fill="#B30328" opacity="1.000000" stroke="none" 
	d="
M3760.372803,1193.626709 
	C3783.080322,1263.691528 3805.570068,1332.986816 3828.070068,1402.313599 
	C3819.670410,1404.738281 3581.820312,1405.297119 3568.601807,1403.047974 
	C3566.518555,1395.266113 3564.213867,1387.014038 3562.104004,1378.712524 
	C3554.478760,1348.708862 3546.941406,1318.682861 3539.323242,1288.677246 
	C3536.719482,1278.420898 3536.655762,1278.361206 3525.929688,1278.356567 
	C3464.943604,1278.330811 3403.957764,1278.336548 3342.971680,1278.366089 
	C3339.693359,1278.367676 3336.415039,1278.681885 3332.282471,1278.894531 
	C3321.467041,1320.728271 3310.751953,1362.173340 3299.983154,1403.826660 
	C3216.375488,1403.826660 3133.831787,1403.826660 3049.886230,1403.826660 
	C3050.610107,1399.773682 3050.847412,1396.276245 3051.873291,1393.027832 
	C3067.213379,1344.451904 3082.691895,1295.919434 3098.070312,1247.355469 
	C3120.483154,1176.575928 3142.819824,1105.772583 3165.229736,1034.992065 
	C3181.108398,984.839966 3197.086426,934.719238 3212.961426,884.565918 
	C3235.366455,813.783936 3257.702881,742.980286 3280.104980,672.197327 
	C3283.822510,660.451233 3287.994385,648.841492 3291.416748,637.012756 
	C3292.917236,631.826538 3295.691650,629.920654 3300.743896,630.325500 
	C3302.729980,630.484680 3304.740723,630.330750 3306.740234,630.330688 
	C3392.720459,630.329590 3478.700928,630.329712 3564.681152,630.329956 
	C3566.014160,630.329956 3567.347412,630.317993 3568.680176,630.338806 
	C3577.762451,630.480530 3577.909668,630.433716 3580.707520,638.827209 
	C3586.077637,654.936523 3591.287109,671.099609 3596.520264,687.254272 
	C3610.988770,731.917480 3625.433105,776.588440 3639.890625,821.255188 
	C3672.599365,922.311523 3705.311279,1023.366943 3738.020020,1124.423462 
	C3745.402832,1147.233032 3752.776611,1170.045654 3760.372803,1193.626709 
M3374.541016,1092.798828 
	C3374.889648,1093.356934 3375.387939,1093.579468 3377.901855,1093.598877 
	C3414.189209,1093.511230 3450.476807,1093.431763 3486.763916,1093.288940 
	C3487.659668,1093.285522 3488.552734,1092.582275 3489.373779,1092.236206 
	C3490.185059,1083.874023 3437.740479,859.870483 3432.549805,851.075500 
	C3431.427246,854.634827 3430.412354,857.293518 3429.749268,860.037231 
	C3414.831299,921.784363 3399.914307,983.531799 3385.090820,1045.301758 
	C3381.369629,1060.808838 3377.971924,1076.393555 3374.541016,1092.798828 
z"/>
<path fill="#B30328" opacity="1.000000" stroke="none" 
	d="
M87.476532,789.521484 
	C122.410194,739.241211 165.352722,698.477417 217.593552,667.857361 
	C269.169708,637.626770 324.674866,618.993958 384.373260,613.669067 
	C499.957733,603.359375 602.207397,635.659180 691.062439,710.254822 
	C698.892029,716.827820 706.188477,724.035950 712.834961,730.126526 
	C658.671204,784.294189 605.321838,837.647400 551.352722,891.620361 
	C511.629852,854.254150 463.425934,835.867920 407.475830,840.938843 
	C362.537567,845.011780 324.140930,864.052612 293.679230,897.245056 
	C228.791031,967.950134 232.330231,1069.332153 289.559692,1136.187500 
	C345.869965,1201.968994 463.636810,1228.432373 550.475342,1147.582153 
	C603.927185,1201.034424 657.353577,1254.461304 711.769531,1308.877563 
	C700.430908,1318.747070 688.901245,1329.722778 676.422180,1339.484985 
	C617.069092,1385.916870 549.840210,1414.354736 475.096161,1423.248657 
	C378.457916,1434.747803 288.288605,1414.900879 205.813416,1362.644531 
	C140.914032,1321.524414 91.795654,1266.013916 57.905594,1197.176147 
	C37.584888,1155.900513 24.936594,1112.234131 19.767225,1066.461426 
	C11.279663,991.307556 22.372299,919.154297 53.298950,850.144958 
	C62.713070,829.138306 74.088928,809.156738 87.476532,789.521484 
z"/>
<path fill="#B30328" opacity="1.000000" stroke="none" 
	d="
M2231.861328,621.642883 
	C2205.960693,638.171936 2181.474365,656.632690 2159.577148,678.155396 
	C2120.097412,716.959473 2090.520508,761.690369 2079.410400,817.029114 
	C2069.533691,866.223389 2074.670898,913.595398 2095.440674,959.363342 
	C2108.150391,987.370850 2124.461670,1013.268799 2140.657227,1039.280029 
	C2159.484131,1069.517700 2179.018799,1099.376831 2196.422119,1130.422729 
	C2217.247559,1167.573120 2231.558838,1207.357910 2235.611816,1250.146240 
	C2241.068604,1307.754761 2226.381348,1360.325439 2195.071289,1408.645630 
	C2158.422363,1465.205200 2110.724609,1510.445679 2054.415283,1547.009888 
	C2049.764160,1550.030029 2045.487427,1550.409546 2040.298950,1548.978882 
	C1961.350464,1527.212402 1882.366577,1505.573975 1803.397705,1483.881348 
	C1800.856201,1483.183228 1798.385010,1482.228516 1794.515747,1480.937988 
	C1797.107300,1478.644775 1798.788208,1476.826294 1800.775024,1475.448975 
	C1827.956055,1456.606567 1853.381714,1435.693970 1875.972168,1411.477051 
	C1899.631836,1386.114014 1918.789673,1357.832153 1929.773804,1324.681274 
	C1944.533325,1280.136719 1939.906738,1236.742432 1920.957275,1194.359741 
	C1907.816772,1164.969238 1889.431274,1138.797485 1871.042969,1112.637939 
	C1852.647583,1086.468506 1834.318481,1060.272217 1819.421509,1031.875000 
	C1800.647217,996.086548 1788.650024,958.355652 1785.607544,917.830322 
	C1779.001587,829.837280 1810.479248,754.782471 1863.568237,687.076904 
	C1882.353027,663.120544 1904.595581,642.592224 1928.576416,623.883240 
	C1933.566772,619.989746 1938.653076,618.217529 1945.040405,618.229309 
	C2040.017090,618.403931 2134.994141,618.383362 2230.868164,618.995789 
	C2231.797363,620.269409 2231.829346,620.956177 2231.861328,621.642883 
z"/>
<path fill="#B30328" opacity="1.000000" stroke="none" 
	d="
M2403.669922,662.009033 
	C2403.669922,651.388428 2403.669922,641.765442 2403.669922,632.498962 
	C2412.435791,629.754517 2951.330322,629.465332 2961.614746,632.046448 
	C2961.614746,698.700989 2961.614746,765.538086 2961.614746,833.536621 
	C2957.243896,833.811218 2953.064941,834.296814 2948.885498,834.302002 
	C2903.885986,834.358032 2858.886230,834.338379 2813.886719,834.339294 
	C2809.975342,834.339355 2806.063721,834.339233 2801.099854,834.339233 
	C2800.803467,840.432678 2800.361084,845.296997 2800.360107,850.161438 
	C2800.324707,1029.492920 2800.330078,1208.824463 2800.329834,1388.155884 
	C2800.329834,1393.055176 2800.329834,1397.954346 2800.329834,1402.465942 
	C2791.125732,1404.694946 2577.405273,1405.119995 2565.196533,1403.070190 
	C2564.920166,1398.532837 2564.369629,1393.697754 2564.368408,1388.862427 
	C2564.324219,1216.197510 2564.331543,1043.532593 2564.331055,870.867737 
	C2564.331055,862.534485 2564.370117,854.200928 2564.305908,845.868164 
	C2564.280518,842.591858 2564.020752,839.317322 2563.802246,834.636658 
	C2510.689697,833.865173 2458.179932,834.750122 2406.454346,834.155579 
	C2405.473389,833.177429 2405.224365,832.953491 2405.005127,832.703430 
	C2404.791748,832.459534 2404.506592,832.214783 2404.432373,831.924438 
	C2404.186035,830.960876 2403.849365,829.976990 2403.848145,829.000549 
	C2403.769287,773.669250 2403.721191,718.337952 2403.669922,662.009033 
z"/>
<path fill="#981E31" opacity="1.000000" stroke="none" 
	d="
M2232.276367,621.541809 
	C2231.829346,620.956177 2231.797363,620.269409 2231.791748,619.067627 
	C2234.962646,618.652283 2234.249268,619.918823 2232.276367,621.541809 
z"/>
<path fill="#47704C" opacity="1.000000" stroke="none" 
	d="
M1388.742065,993.450928 
	C1395.449097,1049.364624 1380.827759,1097.871948 1343.463379,1139.020630 
	C1312.602661,1173.007080 1274.050415,1191.977051 1228.319824,1196.383057 
	C1179.076172,1201.127563 1135.308472,1187.394287 1097.488403,1156.015137 
	C1060.253540,1125.121704 1038.925781,1085.282104 1033.542480,1036.860352 
	C1024.165894,952.517090 1077.914551,868.773071 1165.447632,846.137512 
	C1230.625122,829.283081 1288.729614,844.920288 1337.464722,892.073242 
	C1365.946899,919.630981 1382.782227,953.348450 1388.742065,993.450928 
z"/>
<path fill="#486F4C" opacity="1.000000" stroke="none" 
	d="
M3374.425537,1091.942627 
	C3377.971924,1076.393555 3381.369629,1060.808838 3385.090820,1045.301758 
	C3399.914307,983.531799 3414.831299,921.784363 3429.749268,860.037231 
	C3430.412354,857.293518 3431.427246,854.634827 3432.549805,851.075500 
	C3437.740479,859.870483 3490.185059,1083.874023 3489.373779,1092.236206 
	C3488.552734,1092.582275 3487.659668,1093.285522 3486.763916,1093.288940 
	C3450.476807,1093.431763 3414.189209,1093.511230 3376.731934,1093.247559 
	C3375.219727,1092.534424 3374.841064,1092.216553 3374.425537,1091.942627 
z"/>
<path fill="#635343" opacity="1.000000" stroke="none" 
	d="
M3374.483398,1092.370728 
	C3374.841064,1092.216553 3375.219727,1092.534424 3375.798828,1093.181274 
	C3375.387939,1093.579468 3374.889648,1093.356934 3374.483398,1092.370728 
z"/>
</svg>